<svg version="1.0" xmlns="http://www.w3.org/2000/svg"
 width="1024.000000pt" height="1024.000000pt" viewBox="0 0 1024.000000 1024.000000"
 preserveAspectRatio="xMidYMid meet">

<g transform="translate(0.000000,1024.000000) scale(0.100000,-0.100000)"
fill="#f0f0f0" stroke="none">
<path d="M0 5375 c0 -4722 1 -4865 18 -4865 11 0 27 -9 36 -19 15 -16 16 -31
10 -104 -7 -84 -7 -85 -33 -84 l-26 2 -3 -152 -3 -153 5121 0 5120 0 0 5120 0
5120 -5120 0 -5120 0 0 -4865z m6060 2164 c75 -36 119 -82 186 -197 128 -219
170 -286 181 -289 6 -2 14 5 18 16 10 32 98 118 141 138 35 16 81 18 464 21
255 2 456 -1 501 -7 143 -19 232 -75 310 -194 74 -114 70 17 67 -2037 l-3
-1835 -30 -45 c-20 -30 -47 -53 -80 -70 l-50 -25 -822 -2 c-920 -3 -805 6
-1020 -78 -234 -90 -472 -130 -733 -122 -260 8 -413 41 -644 139 l-140 59
-956 2 -956 2 -42 28 c-23 15 -54 46 -69 69 l-28 42 0 1730 c0 1859 -2 1783
51 1846 53 63 63 65 355 68 l266 4 6 51 c5 43 13 58 42 85 l35 32 231 -2 232
-3 20 -27 c14 -18 22 -48 25 -86 4 -55 5 -57 31 -56 14 1 89 3 167 3 l141 1
108 183 c196 331 250 418 278 453 38 45 106 92 170 115 49 18 89 18 772 16
l720 -2 55 -26z m-5846 -7156 l29 -26 -6 -99 c-3 -55 -2 -98 1 -96 89 44 95
51 67 62 -16 6 -50 74 -42 83 3 2 23 -5 45 -16 63 -32 75 -99 26 -142 -35 -31
-83 -50 -109 -43 -47 12 -55 37 -55 176 0 71 3 128 8 128 4 0 20 -12 36 -27z"/>
<path d="M4575 7292 c-6 -4 -57 -86 -114 -182 -57 -96 -132 -218 -167 -271
-75 -113 -78 -121 -70 -154 7 -29 6 -30 164 46 304 146 583 213 887 213 254
-1 470 -41 693 -130 113 -45 287 -129 364 -176 20 -13 39 -20 42 -18 16 17
-21 102 -79 181 -72 98 -159 232 -255 392 l-64 107 -695 0 c-383 0 -701 -4
-706 -8z"/>
<path d="M6714 6949 c-42 -12 -82 -53 -94 -98 -14 -52 -13 -65 15 -131 23 -54
25 -72 25 -208 l0 -149 48 -50 c26 -28 73 -80 106 -117 41 -48 62 -64 69 -57
8 8 135 11 388 11 l376 0 6 68 c4 37 7 195 7 352 0 321 -4 339 -70 372 -32 16
-73 18 -440 17 -223 0 -419 -5 -436 -10z"/>
<path d="M5115 6669 c-224 -21 -379 -64 -570 -159 -212 -106 -360 -218 -509
-385 -247 -277 -407 -594 -478 -945 -20 -100 -23 -143 -22 -335 0 -188 3 -235
22 -325 119 -559 460 -1014 937 -1250 225 -111 404 -161 654 -180 343 -26 708
63 1021 250 136 80 207 136 322 252 428 433 610 1041 488 1628 -91 433 -339
842 -665 1095 -193 149 -477 279 -722 330 -63 13 -339 38 -378 33 -5 0 -50 -4
-100 -9z m350 -439 c312 -45 610 -208 795 -435 82 -101 177 -246 211 -323 48
-105 107 -292 124 -389 18 -104 21 -338 5 -438 -48 -301 -184 -561 -406 -776
-337 -326 -882 -454 -1317 -308 -391 130 -664 374 -832 744 -92 201 -141 487
-116 675 32 241 73 374 167 547 196 362 562 634 935 697 100 17 335 20 434 6z"/>
<path d="M5033 5944 c-190 -41 -367 -140 -501 -279 -205 -212 -323 -483 -339
-775 -12 -223 68 -483 205 -666 232 -312 598 -476 971 -435 287 31 480 118
657 295 129 130 223 293 279 481 21 69 28 120 32 218 7 160 -8 279 -54 420
-134 417 -449 688 -868 746 -103 15 -306 12 -382 -5z m234 -361 c12 -8 30 -34
39 -59 14 -36 14 -49 4 -73 -17 -42 -37 -57 -111 -85 -180 -68 -306 -185 -391
-364 -45 -94 -71 -117 -136 -117 -37 0 -48 5 -72 32 -44 49 -55 102 -35 171
78 266 319 475 590 511 56 8 80 4 112 -16z"/>
<path d="M2620 6388 c0 -73 3 -157 6 -185 l7 -53 543 0 543 0 79 98 c44 53
120 136 170 185 l91 87 -719 0 -720 0 0 -132z"/>
<path d="M3038 5873 l-417 -3 2 -1288 2 -1287 689 -3 688 -2 -61 51 c-114 97
-319 353 -415 519 -147 255 -240 551 -267 848 -16 170 0 373 45 582 38 174 77
282 167 463 33 64 59 119 59 122 0 3 -17 4 -37 3 -21 -2 -226 -4 -455 -5z"/>
<path d="M7030 5864 c0 -7 21 -53 46 -104 85 -172 151 -387 190 -615 22 -126
25 -422 5 -550 -41 -275 -139 -559 -269 -782 -93 -158 -283 -388 -399 -481
-18 -14 -33 -29 -33 -34 0 -4 242 -8 539 -8 l538 0 6 68 c4 37 7 618 7 1292
l0 1225 -315 0 c-229 0 -315 -3 -315 -11z"/>
</g>
</svg>
